<svg viewBox="0 0 200 140" xmlns="http://www.w3.org/2000/svg" fill="none"><rect x="4" y="4" width="192" height="132" rx="20" fill="#16161F" stroke="#26263A" stroke-width="2"/><rect x="24" y="108" width="152" height="7" rx="3" fill="#2E2A45"/><path d="M40 50 q12 -15 24 0 q0 5 -2 8" fill="#3A3560"/><circle cx="52" cy="54" r="12" fill="#E8E8F2"/><path d="M36 108 L44 78 q3 -7 12 -7 q11 0 13 9 l7 28 Z" fill="#8B7BFF"/><path d="M96 40 h68 a10 10 0 0 1 10 10 v30 a10 10 0 0 1 -10 10 h-52 l-16 14 v-14 a10 10 0 0 1 -10 -10 v-30 a10 10 0 0 1 10 -10 z" fill="#231F3A" stroke="#F2B24C" stroke-width="3" stroke-linejoin="round"/><line x1="132" y1="50" x2="132" y2="72" stroke="#F2B24C" stroke-width="9" stroke-linecap="round"/><circle cx="132" cy="84" r="4.6" fill="#F2B24C"/><path d="M150 46 l9 -6 M154 62 l11 -2 M150 78 l9 5" stroke="#35D0C6" stroke-width="3" stroke-linecap="round"/></svg>