<svg viewBox="0 0 200 140" xmlns="http://www.w3.org/2000/svg" fill="none"><rect x="4" y="4" width="192" height="132" rx="20" fill="#16161F" stroke="#26263A" stroke-width="2"/><rect x="40" y="114" width="120" height="6" rx="3" fill="#2E2A45"/><path d="M80 114 L86 76 Q100 68 114 76 L120 114 Z" fill="#8B7BFF"/><circle cx="100" cy="54" r="13" fill="#E8E8F2"/><path d="M86 78 q-16 6 -20 20" stroke="#E8E8F2" stroke-width="5" fill="none" stroke-linecap="round"/><path d="M114 78 q16 6 20 20" stroke="#E8E8F2" stroke-width="5" fill="none" stroke-linecap="round"/><rect x="46" y="94" width="30" height="22" rx="3" fill="#F2B24C"/><rect x="52" y="86" width="20" height="10" rx="2" fill="#35D0C6"/><rect x="124" y="92" width="30" height="24" rx="3" fill="#35D0C6"/><rect x="130" y="84" width="18" height="10" rx="2" fill="#F2B24C"/><path d="M88 44 q4 -8 -2 -14 M100 40 q4 -8 -2 -14 M112 44 q4 -8 -2 -14" stroke="#F2B24C" stroke-width="3" stroke-linecap="round" fill="none"/></svg>