<svg viewBox="0 0 200 140" xmlns="http://www.w3.org/2000/svg" fill="none"><rect x="4" y="4" width="192" height="132" rx="20" fill="#16161F" stroke="#26263A" stroke-width="2"/><path d="M108 52 L138 44 L162 52 L132 60 Z" fill="#3A3560"/><path d="M132 60 L162 52 L162 88 L132 96 Z" fill="#231F3A"/><path d="M108 52 L132 60 L132 96 L108 88 Z" fill="#8B7BFF"/><path d="M34 96 q16 -10 30 -12" stroke="#F2B24C" stroke-width="11" fill="none" stroke-linecap="round"/><path d="M64 84 q10 -6 20 -4 q10 2 16 8" stroke="#F2B24C" stroke-width="10" fill="none" stroke-linecap="round"/><path d="M78 74 q8 -4 16 0 M80 66 q8 -3 15 1" stroke="#F2B24C" stroke-width="7" fill="none" stroke-linecap="round"/><path d="M104 46 q5 -6 1 -12 M112 48 q7 -7 1 -15" stroke="#35D0C6" stroke-width="2.5" fill="none" stroke-linecap="round"/><circle cx="103" cy="70" r="3" fill="#35D0C6"/></svg>