<svg viewBox="0 0 200 140" xmlns="http://www.w3.org/2000/svg" fill="none"><rect x="4" y="4" width="192" height="132" rx="20" fill="#16161F" stroke="#26263A" stroke-width="2"/><rect x="24" y="116" width="152" height="6" rx="3" fill="#2E2A45"/><circle cx="60" cy="72" r="12" fill="#E8E8F2"/><path d="M44 116 L50 92 q3 -9 12 -8 q9 1 12 10 l4 22 Z" fill="#8B7BFF"/><path d="M74 76 q6 -6 5 -14" stroke="#E8E8F2" stroke-width="5" fill="none" stroke-linecap="round"/><circle cx="100" cy="50" r="6" fill="#231F3A" stroke="#3A3560" stroke-width="2"/><circle cx="112" cy="44" r="8" fill="#231F3A" stroke="#3A3560" stroke-width="2"/><path d="M124 30 h48 a6 6 0 0 1 6 6 v22 a6 6 0 0 1 -6 6 h-30 l-10 9 3 -9 h-11 a6 6 0 0 1 -6 -6 v-22 a6 6 0 0 1 6 -6 z" fill="#231F3A" stroke="#8B7BFF" stroke-width="2"/><path d="M138 44 q0 -9 9 -9 q10 0 10 8 q0 7 -9 9 l0 5" stroke="#35D0C6" stroke-width="4" fill="none" stroke-linecap="round" stroke-linejoin="round"/><circle cx="147" cy="63" r="2.6" fill="#35D0C6"/><path d="M162 46 l4 5 9 -11" stroke="#F2B24C" stroke-width="4" fill="none" stroke-linecap="round" stroke-linejoin="round"/></svg>