<svg viewBox="0 0 200 140" xmlns="http://www.w3.org/2000/svg" fill="none"><rect x="4" y="4" width="192" height="132" rx="20" fill="#16161F" stroke="#26263A" stroke-width="2"/><rect x="72" y="112" width="56" height="8" rx="3" fill="#2E2A45"/><path d="M70 46 h60 q-3 32 -30 38 q-27 -6 -30 -38 Z" fill="#3A3560" stroke="#8B7BFF" stroke-width="2.5" stroke-linejoin="round"/><path d="M76 50 h48 q-2 22 -24 28 q-22 -6 -24 -28 Z" fill="#35D0C6"/><rect x="93" y="84" width="14" height="20" fill="#3A3560"/><rect x="80" y="104" width="40" height="8" rx="3" fill="#8B7BFF"/><path d="M70 48 q-16 4 -14 24 q1 12 12 18" stroke="#35D0C6" stroke-width="5" stroke-linecap="round" fill="none"/><path d="M64 94 q3 8 -1 13 q-6 -4 -6 -13 q4 -6 7 0 Z" fill="#35D0C6"/><path d="M50 78 q2 6 -1 10 q-5 -3 -4 -10 q3 -4 5 0 Z" fill="#35D0C6"/><path d="M144 40 l4 8 8 2 -8 2 -4 8 -4 -8 -8 -2 8 -2 z" fill="#F2B24C"/></svg>